# xmcd CD database file
#
# Track frame offsets:
#	150
#	9553
#	35850
#	48055
#	85580
#	116373
#	145200
#	162722
#	188348
#	211800
#	230987
#	254418
#
# Disc length: 3696 seconds
#
# Revision: 0
# Processed by: cddbd v1.5.1PL0 Copyright (c) Steve Scherf et al.
# Submitted via: CDex 1.51
#
DISCID=9e0e6e0c
DTITLE=上々颱風 - JIROKICHI DAYS 1988
DYEAR=2004
DGENRE=Country
TTITLE0=上々颱風のテーマ
TTITLE1=張子の虎
TTITLE2=カラスかねもん勘三郎
TTITLE3=仏の顔もIt's all right
TTITLE4=上海我愛?
TTITLE5=美は乱調にあり
TTITLE6=ハイ・ハイ・ハイ
TTITLE7=踊りゃんせ
TTITLE8=町工場の女の子
TTITLE9=ヨコスカ・バーニング・ナイト
TTITLE10=ヨコスカ・マンボ
TTITLE11=チャイナタウン・シャッフル
EXTD=YEAR: 2004
EXTT0=
EXTT1=
EXTT2=
EXTT3=
EXTT4=
EXTT5=
EXTT6=
EXTT7=
EXTT8=
EXTT9=
EXTT10=
EXTT11=
PLAYORDER=
